<svg width="20" height="16" viewBox="0 0 20 16" fill="none" xmlns="http://www.w3.org/2000/svg">
<path fill-rule="evenodd" clip-rule="evenodd" d="M3.96802 5.86002e-07H16.032C16.4706 -1.16926e-05 16.8491 -2.25399e-05 17.1624 0.021351C17.4922 0.043855 17.8221 0.0933587 18.1481 0.228363C18.8831 0.532845 19.4672 1.11687 19.7716 1.85195C19.9066 2.17788 19.9561 2.50779 19.9787 2.83762C20 3.15088 20 3.52936 20 3.96801V12.032C20 12.4706 20 12.8491 19.9787 13.1624C19.9561 13.4922 19.9066 13.8221 19.7716 14.1481C19.4672 14.8831 18.8831 15.4672 18.1481 15.7716C17.8221 15.9066 17.4922 15.9561 17.1624 15.9787C16.8491 16 16.4706 16 16.032 16H3.96801C3.52936 16 3.15088 16 2.83762 15.9787C2.50779 15.9561 2.17788 15.9066 1.85195 15.7716C1.11687 15.4672 0.532845 14.8831 0.228363 14.1481C0.0933587 13.8221 0.043855 13.4922 0.021351 13.1624C-2.25399e-05 12.8491 -1.16926e-05 12.4706 5.86002e-07 12.032V3.96802C-1.16926e-05 3.52937 -2.25399e-05 3.15088 0.021351 2.83762C0.043855 2.50779 0.0933587 2.17788 0.228363 1.85195C0.532845 1.11687 1.11687 0.532845 1.85195 0.228363C2.17788 0.0933587 2.50779 0.043855 2.83762 0.021351C3.15088 -2.25399e-05 3.52937 -1.16926e-05 3.96802 5.86002e-07ZM2.31774 2.27753C2.68142 1.86189 3.31318 1.81978 3.72882 2.18346L9.34178 7.0948C9.7188 7.4247 10.2818 7.4247 10.6588 7.0948L16.2717 2.18346C16.6874 1.81978 17.3191 1.86189 17.6828 2.27753C18.0465 2.69317 18.0044 3.32493 17.5888 3.68861L11.9758 8.59995C10.8447 9.58965 9.15585 9.58964 8.02477 8.59995L2.41181 3.68861C1.99617 3.32493 1.95405 2.69317 2.31774 2.27753Z" fill="white"/>
</svg>
